<svg width="2000" height="1333" viewBox="0 0 2000 1333" fill="none" xmlns="http://www.w3.org/2000/svg">
<path d="M1241.53 370.844C1241.53 370.73 1241.53 370.73 1241.66 370.73H1432.88C1432.99 370.73 1432.99 370.73 1432.99 370.844V580.444C1432.99 580.57 1432.99 580.57 1432.88 580.57H1241.66C1241.53 580.57 1241.53 580.57 1241.53 580.444V370.844Z" fill="#66AB9A"/>
<path d="M1444.29 370.844C1444.29 370.73 1444.29 370.73 1444.29 370.844L1635.63 370.73C1635.76 370.73 1635.76 370.73 1635.76 370.844V580.444C1635.76 580.57 1635.76 580.57 1635.63 580.57H1444.41C1444.29 580.57 1444.29 580.57 1444.29 580.444V370.844Z" fill="#66AB9A"/>
<path d="M1581.6 460.374C1579.63 453.652 1575.48 448.315 1569.2 446.339C1565.5 445.219 1559.74 442.89 1556.02 441.43C1553.87 440.561 1552.32 438.673 1551.98 436.432L1550.26 426.702V426.614C1552.32 424.801 1554.05 422.132 1554.47 420.937C1556.11 415.939 1556.8 408.185 1556.63 405.353C1556.38 400.444 1552.59 394.754 1547.32 394.326C1541.13 393.81 1531.92 392.941 1529.59 401.123C1528.56 404.66 1529.07 408.789 1529.68 411.722C1530.19 414.215 1531.58 416.455 1533.64 418.004C1533.64 418.004 1533.64 418.004 1533.64 418.092L1530.28 436.004C1529.76 438.761 1527.61 440.825 1524.86 441.342C1521.41 441.946 1516.51 442.89 1512.12 444.35C1502.3 447.623 1498.42 457.353 1497.12 462.351C1496.7 463.899 1497.73 465.535 1499.36 465.8L1508.24 467.084C1508.24 467.084 1508.33 467.084 1508.33 467.172L1517.71 494.639L1519 506.874C1519 506.874 1519 506.874 1519 506.962C1518.57 507.73 1507.37 530.287 1508.93 552.253C1508.93 552.341 1508.93 552.341 1509.01 552.341H1538.12H1538.2C1538.2 552.341 1538.2 552.341 1538.2 552.253L1538.12 544.499C1538.12 543.555 1538.89 542.775 1539.84 542.775H1541.31C1542.25 542.775 1543.02 543.643 1542.94 544.587L1542.25 552.253V552.341C1542.25 552.341 1542.25 552.341 1542.34 552.341H1570.41C1570.5 552.341 1570.5 552.341 1570.5 552.253C1570.93 539.59 1564.81 512.375 1564.63 511.695C1564.63 511.091 1566.19 489.654 1566.27 483.272C1566.36 475.014 1565.16 466.656 1565.07 465.8V465.712C1565.07 465.712 1565.07 465.712 1565.16 465.712L1579.54 463.723C1581 463.647 1582.12 461.923 1581.6 460.374Z" fill="#F3F2F9"/>
<path d="M1541.65 523.581C1551.12 523.581 1555.78 519.616 1557.93 509.797C1560.69 497.058 1562.49 471.228 1559.05 459.509C1558.45 457.532 1555.87 453.479 1551.9 448.23C1549.23 444.705 1547.51 440.488 1546.9 436.095L1545.35 424.892C1545.35 424.892 1545.35 424.804 1545.27 424.804L1538.47 423.004H1538.38C1538.38 423.004 1538.38 423.004 1538.38 423.092L1536.32 434.711C1535.54 439.192 1533.56 443.409 1530.71 446.77C1527.96 450.043 1524.35 455.292 1523.14 461.409C1521.59 468.811 1523.14 478.542 1524.86 488.876C1525.38 491.885 1525.81 494.906 1526.25 498.002C1526.41 499.463 1526.59 500.935 1526.76 502.396C1528.31 515.651 1530.02 523.581 1541.65 523.581Z" fill="#5E5E5E"/>
<path d="M1528.74 502.221C1528.65 501.101 1528.4 499.64 1528.22 498.18C1527.79 495.159 1530.28 492.579 1533.29 492.843C1536.57 493.095 1540.53 493.447 1543.8 493.447C1546.47 493.447 1549.75 493.183 1552.59 492.918C1555.6 492.667 1558.1 495.159 1557.75 498.18C1557.24 502.397 1556.63 506.274 1556.03 509.459C1554.14 518.321 1548.2 521.254 1541.65 521.254C1534.16 521.166 1530.28 515.652 1528.74 502.221Z" fill="#445E59"/>
<path d="M1546.47 469.758C1545.17 465.365 1544.49 460.808 1544.49 456.163V451.846C1544.49 449.957 1546.81 449.013 1548.19 450.385C1549.48 451.682 1550.95 453.318 1552.23 454.779C1555.86 458.744 1558.1 463.729 1558.53 468.99C1558.87 473.295 1558.96 478.456 1558.69 484.146C1558.69 484.914 1557.84 485.266 1557.23 484.826L1551.98 480.445C1550.01 478.809 1548.53 476.656 1547.85 474.151L1546.47 469.758Z" fill="#3B5B53"/>
<path d="M1529.86 456.071L1534.25 450.734C1535.8 448.833 1538.81 449.777 1539.07 452.194L1539.68 457.707C1539.93 459.772 1540.02 461.836 1539.93 463.901L1539.59 473.455C1539.5 476.3 1538.13 478.968 1535.8 480.693L1529.16 485.602C1527.96 486.458 1526.32 485.778 1526.07 484.306C1525.38 480.001 1524.86 475.872 1524.61 472.083C1524.26 466.406 1526.16 460.628 1529.86 456.071Z" fill="#3B5B53"/>
<path d="M1543.02 450.044C1541.74 450.044 1540.44 449.263 1539.84 447.979C1539.32 446.859 1537.44 436.952 1539.07 425.585C1539.32 423.697 1541.05 422.401 1542.95 422.652C1544.84 422.917 1546.13 424.641 1545.87 426.529C1544.59 435.744 1545.87 444.014 1546.22 445.474C1546.74 447.111 1545.96 448.923 1544.32 449.691C1543.98 449.955 1543.46 450.044 1543.02 450.044ZM1546.22 445.222C1546.3 445.311 1546.3 445.386 1546.3 445.562C1546.22 445.31 1546.22 445.222 1546.22 445.222Z" fill="#D3D3D3"/>
<path d="M1550.6 489.736C1552.16 491.977 1551.2 496.634 1541.13 496.194C1531.22 495.854 1528.64 490.429 1528.64 485.947C1528.64 482.674 1532.26 480.522 1535.1 481.479C1538.71 482.763 1538.98 485.696 1542.94 487.068C1545.1 487.936 1548.89 487.332 1550.6 489.736Z" fill="white"/>
<path d="M1534.25 468.12C1529.86 469.844 1522.71 470.537 1520.65 470.625C1519.86 470.713 1519.1 470.109 1519.01 469.24C1518.92 468.384 1519.52 467.692 1520.38 467.604C1525.38 467.264 1535.71 466.143 1539.84 460.718C1540.53 459.862 1539.5 458.565 1538.47 459.082C1533.65 461.498 1526.67 462.354 1521.25 462.694C1520.38 462.782 1519.7 462.103 1519.61 461.322C1519.52 460.466 1520.22 459.774 1520.98 459.686C1523.65 459.51 1528.74 459.082 1532.01 458.226C1534.77 457.533 1536.74 456.589 1538.21 455.809C1538.72 455.557 1538.99 455.041 1538.99 454.437C1538.9 453.568 1538.13 453.052 1537.26 453.228C1533.47 454.084 1528.92 454.688 1524.01 454.865C1522.02 454.953 1521.85 452.02 1523.83 451.844C1528.47 451.68 1532.87 451.164 1536.57 450.22C1537.26 450.043 1537.78 449.439 1537.78 448.747C1537.78 447.891 1537.08 447.287 1536.32 447.287H1528.92C1526.93 447.199 1526.93 444.354 1528.92 444.266C1534.86 444.266 1546.74 444.266 1552.68 444.266C1554.66 444.354 1554.66 447.199 1552.68 447.287H1547.08C1545.36 447.287 1545.02 449.779 1546.65 450.22C1550.09 451.164 1553.63 451.592 1558.18 451.844C1559.05 451.932 1559.65 452.624 1559.65 453.404C1559.65 454.26 1558.87 454.865 1558.11 454.865C1553.71 454.6 1550.69 454.26 1547.42 453.48C1546.05 453.14 1545.27 454.953 1546.48 455.721C1547.77 456.589 1549.57 457.445 1551.81 458.137C1554.91 459.082 1559.74 459.51 1561.72 459.686C1563.7 459.862 1563.53 462.782 1561.54 462.694C1557.75 462.531 1551.47 461.662 1547.26 459.686C1546.48 459.346 1545.71 460.29 1546.3 460.982C1550.53 465.803 1558.02 467.087 1562.84 467.515C1564.82 467.78 1564.56 470.625 1562.58 470.537C1560.85 470.36 1555 469.756 1551.12 467.956C1549.48 467.264 1548.02 466.408 1546.82 465.451C1546.65 465.363 1546.48 465.287 1546.39 465.363C1546.22 465.539 1546.3 465.803 1546.39 465.967C1549.66 471.909 1556.38 474.414 1563.27 475.181C1565.24 475.446 1564.9 478.366 1562.93 478.203C1559.48 477.775 1553.63 476.566 1549.23 473.457C1548.72 473.117 1548.02 473.721 1548.38 474.237C1549.66 476.138 1551.3 477.85 1553.27 479.235C1555.6 480.871 1559.3 482.243 1563.18 482.847C1564.05 483.024 1564.56 483.792 1564.39 484.572C1564.21 485.428 1563.44 485.944 1562.66 485.78C1561.63 485.604 1559.74 485.176 1557.67 484.572C1557.24 484.484 1556.9 484.824 1556.99 485.176C1556.99 485.264 1557.06 485.428 1557.06 485.516C1557.84 488.097 1560.08 489.909 1562.75 490.337C1564.48 490.765 1564.12 493.27 1562.41 493.27C1561.9 493.182 1561.29 493.006 1560.78 492.918C1560.17 492.754 1559.65 493.27 1559.91 493.874C1560.51 495.247 1560.6 497.147 1562.24 497.752C1563 498.003 1563.44 498.859 1563.18 499.64C1561.97 502.308 1558.53 499.212 1558.02 497.487C1556.99 494.554 1555.95 491.634 1554.91 488.613C1553.8 485.264 1551.81 482.243 1549.14 479.839L1549.06 479.751C1546.39 477.334 1542.35 477.422 1539.68 479.839C1539.68 479.839 1539.68 479.839 1539.59 479.927C1536.66 482.508 1534.5 485.869 1533.65 489.733C1533.3 491.458 1532.87 493.182 1532.44 494.819C1531.5 498.431 1528.47 501.188 1524.77 501.616C1522.8 501.88 1522.28 498.947 1524.35 498.608C1527.1 498.268 1528.92 496.279 1529.59 493.786C1529.77 493.27 1529.26 492.754 1528.74 492.918C1527.01 493.358 1525.2 493.698 1523.49 493.874C1522.71 493.963 1521.93 493.358 1521.85 492.578C1521.77 491.722 1522.37 491.03 1523.14 490.941C1524.17 490.853 1525.13 490.69 1526.16 490.513C1528.83 489.997 1530.98 487.845 1531.5 485.088C1531.58 484.748 1531.23 484.396 1530.8 484.484C1527.79 485.352 1524.61 485.944 1522.19 486.208C1520.22 486.385 1519.95 483.452 1521.93 483.187C1529.34 482.508 1538.65 479.839 1541.31 472.173C1541.48 471.569 1540.8 471.141 1540.36 471.569C1535.62 476.214 1527.62 477.85 1521.07 478.366C1520.31 478.454 1519.52 477.85 1519.44 476.994C1519.35 476.138 1519.95 475.446 1520.82 475.358C1528.4 474.753 1538.38 472.513 1540.96 465.199C1540.96 465.111 1540.96 465.023 1540.96 464.935C1540.87 464.507 1540.36 464.331 1540.11 464.595C1538.65 466.055 1536.57 467.176 1534.25 468.12Z" fill="#88D8CA"/>
<path d="M1520.65 470.628C1519.86 470.716 1519.1 470.111 1519.01 469.243C1518.92 468.387 1519.52 467.695 1520.38 467.607C1523.05 467.443 1527.19 467.002 1531.07 465.895H1531.14V465.97C1530.98 467.002 1530.8 468.047 1530.63 469.079C1530.63 469.079 1530.63 469.155 1530.55 469.155C1526.67 470.111 1522.19 470.539 1520.65 470.628Z" fill="#88D8CA"/>
<path d="M1548.8 418.612V418.209V417.567C1548.75 418.058 1549.12 416.56 1549.22 415.805C1549.34 414.861 1549.24 413.854 1549.36 412.847C1549.38 412.645 1549.36 412.431 1549.57 412.406H1549.66C1550.01 412.922 1550.53 413.791 1550.95 414.483C1551.47 415.163 1551.81 415.679 1551.81 416.032C1551.81 416.636 1549.92 418.348 1548.93 418.889C1548.85 418.751 1548.69 418.323 1548.62 418.448L1548.8 418.612Z" fill="#DBD9E2"/>
<path d="M1529.6 401.103C1531.32 394.997 1536.92 393.877 1542.26 393.953C1544.75 393.877 1547.6 396.634 1548.89 398.786C1550.78 401.971 1549.48 411.525 1549.41 411.953C1549.5 413.313 1550.37 415.025 1550.37 415.478C1550.09 416.548 1549.41 417.366 1549.14 417.807V417.895C1549.32 420.916 1549.32 427.374 1546.39 428.494C1543.38 428.494 1537.6 425.901 1536.14 423.673C1535.2 422.2 1533.99 419.796 1533.74 418.159C1533.74 418.159 1533.74 418.159 1533.74 418.071C1531.75 416.523 1530.29 414.282 1529.77 411.79C1529.08 408.769 1528.56 404.64 1529.6 401.103Z" fill="#88D8CA"/>
<path d="M1495.84 552.342C1495.84 552.254 1495.84 552.254 1495.93 552.254H1582.9C1582.99 552.254 1582.99 552.254 1582.99 552.342V559.832C1582.99 559.92 1582.99 559.92 1582.9 559.92H1495.93C1495.84 559.92 1495.84 559.92 1495.84 559.832V552.342Z" fill="#182D29"/>
<path d="M1532.26 499.038C1540.53 501.278 1546.9 501.366 1553.45 499.39C1555.43 498.786 1557.41 500.422 1557.15 502.487C1555.77 512.645 1554.31 521.595 1541.65 521.595C1531.49 521.595 1529.94 512.985 1528.65 502.134C1528.4 500.07 1530.28 498.521 1532.26 499.038Z" fill="#E3E2EC"/>
<path d="M1543.02 414.734C1545.08 414.734 1546.74 413.085 1546.74 411.033C1546.74 408.994 1545.08 407.332 1543.02 407.332C1540.99 407.332 1539.32 408.994 1539.32 411.033C1539.32 413.085 1540.99 414.734 1543.02 414.734Z" fill="#45C0A9"/>
<path d="M1549.32 411.98C1549.41 411.98 1549.41 411.98 1549.41 412.069C1549.66 413.453 1550.78 414.825 1550.69 415.606C1550.53 416.714 1549.41 417.67 1549.14 417.834H1549.05C1548.8 417.758 1547.25 417.154 1547.08 416.197C1546.99 415.165 1548.63 412.157 1549.32 411.98Z" fill="#45C0A9"/>
<path d="M1541.65 421.46L1541.56 419.308C1541.56 418.527 1541.13 417.835 1540.44 417.495L1537.59 415.947C1537.34 415.771 1537 416.035 1537.08 416.375L1537.25 417.319C1537.52 419.043 1538.46 420.68 1539.92 421.8L1540.44 422.14C1540.87 422.581 1541.65 422.14 1541.65 421.46Z" fill="#45C0A9"/>
<path d="M1387.67 431.293C1374.04 417.647 1351.94 417.647 1338.3 431.293C1324.65 417.647 1302.56 417.647 1288.87 431.293C1275.22 444.938 1275.22 467.03 1288.87 480.725L1338.24 530.095L1387.62 480.725C1401.31 467.03 1401.31 444.875 1387.67 431.293Z" stroke="#F3F2F9" stroke-width="2" stroke-linecap="round" stroke-linejoin="round"/>
<path d="M1360.72 461.939H1345.08V446.305H1331.45V461.939H1315.82V475.584H1331.45V491.269H1345.08V475.584H1360.72V461.939Z" stroke="#F3F2F9" stroke-width="2" stroke-linecap="round" stroke-linejoin="round"/>
<path d="M1578.67 1280.55C1586.3 1280.55 1592.48 1274.37 1592.48 1266.76C1592.48 1259.13 1586.3 1252.95 1578.67 1252.95C1571.04 1252.95 1564.88 1259.13 1564.88 1266.76C1564.88 1274.37 1571.04 1280.55 1578.67 1280.55Z" fill="#1F141B"/>
<path d="M1580.64 1249.5C1580.64 1249.61 1580.52 1249.61 1580.52 1249.61C1577.41 1249.61 1574.66 1249.5 1571.44 1250.64C1570.52 1251 1570.16 1252.14 1570.74 1252.95C1573.97 1257.31 1573.39 1260.89 1573.39 1266.98C1573.39 1271.35 1578.45 1273.77 1581.9 1271.24C1602.49 1255.7 1601.34 1258.81 1601.34 1245.36C1601.34 1237.65 1580.64 1237.65 1580.64 1245.36V1249.5Z" fill="#1F141B"/>
<path d="M1689.68 1280.55C1697.31 1280.55 1703.48 1274.37 1703.48 1266.76C1703.48 1259.13 1697.31 1252.95 1689.68 1252.95C1682.06 1252.95 1675.88 1259.13 1675.88 1266.76C1675.88 1274.37 1682.06 1280.55 1689.68 1280.55Z" fill="#1F141B"/>
<path d="M1687.72 1249.62C1690.83 1249.62 1693.82 1249.5 1697.05 1250.65C1697.96 1251 1698.3 1252.15 1697.73 1252.95C1694.52 1257.32 1695.08 1260.89 1695.08 1266.99C1695.08 1271.36 1690.02 1273.77 1686.57 1271.24C1665.98 1255.71 1667.14 1258.82 1667.14 1245.36C1667.14 1236.5 1687.72 1236.5 1687.72 1245.36V1249.62Z" fill="#1F141B"/>
<path d="M1701.3 1244.2L1571.43 1244.33C1571.32 1244.33 1571.32 1244.33 1571.32 1244.2V1011.5C1572.81 989.989 1573.61 976.306 1571.32 949.846V939.26C1571.32 924.884 1583.05 913.152 1597.43 913.152H1675.18C1689.57 913.152 1701.3 924.884 1701.3 939.26V1244.2ZM1580.98 1234.55C1580.98 1234.66 1580.98 1234.66 1581.09 1234.66H1691.64C1691.75 1234.66 1691.75 1234.66 1691.75 1234.55V939.26C1691.75 930.171 1684.27 922.807 1675.18 922.807H1597.43C1588.34 922.807 1580.98 930.171 1580.98 939.26V1234.55Z" fill="#8B3C6C"/>
<path opacity="0.54" d="M1761.12 932.476L1747.08 902.102V880.941C1747.08 880.828 1747.08 880.828 1747.2 880.828H1747.65C1749.95 880.828 1749.95 877.379 1747.65 877.379H1726.26C1723.96 877.379 1723.96 880.828 1726.26 880.828H1726.72C1726.83 880.828 1726.83 880.828 1726.83 880.941V902.102L1712.81 932.476C1710.84 936.504 1712.45 941.451 1716.48 943.629C1720.05 945.593 1722.93 947.544 1727.64 947.544C1752.37 947.544 1749.04 948.463 1757.78 943.629C1761.46 941.451 1763.07 936.504 1761.12 932.476Z" fill="#F29AD0"/>
<path opacity="0.54" d="M1706.7 947.428C1706.7 947.542 1706.7 947.541 1706.59 947.541H1672.89C1672.77 947.541 1672.77 947.542 1672.77 947.428V907.046L1665.64 893.703V893.59H1665.75H1706.82C1708.89 893.59 1709.01 896.926 1706.82 897.039C1706.7 897.039 1706.7 897.039 1706.7 897.152V947.428Z" fill="#F29AD0"/>
<path d="M1777.8 935.582H1610.2C1607.44 935.582 1607.44 939.723 1610.2 939.723H1614.92C1619.64 946.395 1622.04 950.536 1628.71 950.536H1759.27C1763.08 950.536 1766.75 948.812 1768.94 945.476L1773.08 939.723H1777.8C1778.84 939.723 1779.76 938.805 1779.87 937.646C1779.87 936.388 1778.84 935.582 1777.8 935.582Z" fill="#1F141B"/>
<path d="M1793.21 1280.55C1800.83 1280.55 1807.02 1274.37 1807.02 1266.76C1807.02 1259.13 1800.83 1252.95 1793.21 1252.95C1785.58 1252.95 1779.41 1259.13 1779.41 1266.76C1779.41 1274.37 1785.58 1280.55 1793.21 1280.55Z" fill="#49223A"/>
<path d="M1791.26 1249.27C1791.26 1249.39 1791.26 1249.39 1791.37 1249.5C1791.48 1249.61 1791.48 1249.61 1791.6 1249.61C1794.59 1249.61 1797.46 1249.5 1800.57 1250.65C1801.49 1251 1801.83 1252.14 1801.26 1252.95C1798.04 1257.32 1798.62 1260.89 1798.62 1266.99C1798.62 1271.35 1793.56 1273.77 1790.1 1271.24C1769.52 1255.71 1770.66 1258.82 1770.66 1245.36C1770.66 1235 1791.26 1235 1791.26 1245.36V1249.27Z" fill="#8B3C6C"/>
<path d="M1673.81 1280.55C1681.44 1280.55 1687.61 1274.37 1687.61 1266.76C1687.61 1259.13 1681.44 1252.95 1673.81 1252.95C1666.18 1252.95 1660 1259.13 1660 1266.76C1660 1274.37 1666.18 1280.55 1673.81 1280.55Z" fill="#49223A"/>
<path d="M1675.64 1249.5C1675.64 1249.62 1675.53 1249.62 1675.53 1249.62C1672.42 1249.62 1669.55 1249.5 1666.33 1250.65C1665.41 1251 1665.06 1252.15 1665.64 1252.95C1668.86 1257.32 1668.28 1260.89 1668.28 1266.99C1668.28 1271.36 1673.34 1273.77 1676.79 1271.24C1697.38 1255.71 1696.24 1258.82 1696.24 1245.36C1696.24 1236.5 1675.64 1236.5 1675.64 1245.36V1249.5Z" fill="#8B3C6C"/>
<path d="M1673.81 949.848H1660.58H1571.32V1011.5H1660.58H1673.81H1794.36V949.848H1673.81Z" fill="#EBB2D5"/>
<path d="M1799.07 1244.2L1669.32 1244.33C1669.2 1244.33 1669.2 1244.33 1669.2 1244.2V939.26C1669.2 924.884 1680.94 913.152 1695.32 913.152H1773.08C1787.45 913.152 1799.19 924.884 1799.19 939.26V1244.2H1799.07ZM1678.76 1234.55C1678.76 1234.66 1678.76 1234.66 1678.76 1234.55L1789.42 1234.66C1789.53 1234.66 1789.53 1234.66 1789.53 1234.55V939.26C1789.53 930.171 1782.17 922.807 1773.08 922.807H1695.32C1686.23 922.807 1678.87 930.171 1678.87 939.26V1234.55H1678.76Z" fill="#8B3C6C"/>
<path d="M291.917 1281.03C295.013 1281.03 297.846 1278.72 298.236 1275.48L324.305 1096.23C327.276 1076.23 344.572 1061.26 364.826 1061.26H457.485C477.626 1061.26 495.047 1076.35 498.006 1096.23L524.075 1275.48C524.591 1278.97 527.826 1281.42 531.439 1280.91C534.913 1280.39 537.368 1277.17 536.852 1273.55L510.782 1094.29C506.918 1067.97 484.071 1048.22 457.485 1048.22H364.826C338.24 1048.22 315.406 1068.1 311.529 1094.29L285.459 1273.55C284.943 1277.03 287.398 1280.39 290.885 1280.91C291.262 1280.91 291.652 1281.03 291.917 1281.03Z" fill="#827157"/>
<path d="M684.373 1052.86C684.373 1049.77 682.17 1047.19 679.199 1046.55C669.783 1044.73 660.229 1043.7 650.549 1043.7H524.469C502.012 1043.7 484.716 1024.09 487.435 1001.9C489.751 982.788 490.784 963.566 490.268 944.332L489.5 912.975C489.109 898.776 477.491 887.422 463.304 887.422H328.69C313.987 887.422 302.117 899.557 302.494 914.259L303.275 944.206C303.791 963.44 302.758 982.662 300.43 1001.76C296.943 1030.16 313.987 1051.83 337.476 1051.83H463.556C471.688 1051.83 479.82 1052.49 487.813 1053.77C495.177 1054.93 502.528 1055.71 509.892 1055.71H681.402C683.076 1055.96 684.373 1054.55 684.373 1052.86Z" fill="#827157"/>
<path d="M716.365 1281.03C716.629 1281.03 717.007 1281.03 717.271 1280.91C720.758 1280.39 723.2 1277.17 722.684 1273.55L696.627 1094.29C692.75 1067.97 669.903 1048.22 643.317 1048.22H550.658C524.072 1048.22 501.238 1068.1 497.361 1094.29L471.291 1273.55C470.775 1277.03 473.23 1280.39 476.717 1280.91C480.203 1281.42 483.552 1278.97 484.068 1275.48L510.137 1096.23C513.108 1076.23 530.404 1061.26 550.658 1061.26H643.317C663.458 1061.26 680.879 1076.35 683.85 1096.23L709.907 1275.48C710.423 1278.72 713.268 1281.03 716.365 1281.03Z" fill="#827157"/>
<path d="M825.176 525.883H799.573C796.589 525.883 793.858 529.319 796.828 532.743L810.197 544.739C814.2 548.289 815.572 547.37 843.454 547.37C846.425 547.37 848.942 543.833 846.085 540.51C833.396 529.08 831.344 525.883 825.176 525.883Z" fill="#2E3A37"/>
<path d="M797.509 581.436H655.43H655.316C655.316 581.436 655.316 581.436 655.316 581.323L660.465 431.25H789.742C793.28 431.25 796.477 432.509 799.108 434.787C808.032 442.793 821.627 453.191 821.627 474.791V557.204C821.741 570.573 810.89 581.436 797.509 581.436Z" fill="#A2AAA8"/>
<path d="M716.583 522.797C705.154 523.137 696.241 532.968 696.241 544.398C696.241 558.006 697.84 570.115 685.844 581.432H806.083C811.232 581.432 815.235 577.315 815.235 572.293V544.511C815.235 532.515 805.63 522.911 793.621 522.911C765.739 522.911 720.473 522.684 716.583 522.797Z" fill="#2E3A37"/>
<path d="M663.096 581.436H655.43C655.316 581.436 655.316 581.436 655.316 581.323V431.363C655.316 431.25 655.316 431.25 655.43 431.25H660.465L671.668 441.081C681.386 449.653 686.987 461.99 686.987 474.905V557.091C687.101 570.459 676.351 581.436 663.096 581.436Z" fill="#767676"/>
<path d="M709.043 640.765C708.93 621.443 697.387 621.443 697.387 602.02C697.387 582.697 708.93 582.697 708.93 563.375C708.93 563.262 708.93 563.262 709.043 563.262H803.566H803.679C803.679 563.262 803.679 563.262 803.679 563.375C803.679 582.584 792.136 582.584 792.136 602.02C792.136 621.33 803.679 621.33 803.679 640.652V640.765C803.679 640.765 803.679 640.765 803.566 640.765H709.043Z" fill="#E6EAEA"/>
<path d="M609.145 545.438H605.834C604.462 545.438 603.43 544.405 603.43 543.033V537.092C603.43 535.72 604.462 534.688 605.834 534.688H609.145C610.517 534.688 611.549 535.72 611.549 537.092V543.033C611.549 544.405 610.517 545.438 609.145 545.438Z" fill="#2E3A37"/>
<path d="M619.205 539.027H572.566H572.453C572.453 539.027 572.453 539.027 572.453 538.914L576.116 431.816C576.116 431.703 576.116 431.703 576.229 431.703C596.345 431.703 612.004 431.703 612.004 431.703C618.172 431.703 617.946 432.383 620.237 434.221C626.631 439.822 636.349 447.249 636.349 462.908V521.883C636.349 531.261 628.696 539.027 619.205 539.027Z" fill="#A2AAA8"/>
<path d="M616.234 497.2C608.114 497.539 601.72 504.4 601.72 512.632C601.72 522.35 602.865 530.923 594.293 539.029H625.259C628.922 539.029 631.893 536.058 631.893 532.408V512.167C631.78 503.72 624.806 496.86 616.234 497.2Z" fill="#2E3A37"/>
<path d="M578.055 539.027H572.566C572.453 539.027 572.453 539.027 572.453 538.914V431.816C572.453 431.703 572.453 431.703 572.566 431.703H576.229C576.229 431.703 576.23 431.703 576.343 431.703C584.689 439.017 595.313 446.33 595.313 462.795V521.769C595.086 531.261 587.433 539.027 578.055 539.027Z" fill="#767676"/>
<path d="M613.266 463.138V482.221C613.266 485.204 617.835 485.204 617.835 482.221V463.138C618.062 460.393 613.266 459.94 613.266 463.138Z" fill="#E6EAEA"/>
<path d="M1226.03 1281.01C1234.64 1281.01 1241.62 1274.02 1241.62 1265.4C1241.62 1256.79 1234.64 1249.8 1226.03 1249.8C1217.4 1249.8 1210.42 1256.79 1210.42 1265.4C1210.42 1274.02 1217.4 1281.01 1226.03 1281.01Z" fill="#281F24"/>
<path d="M1223.82 1245.79C1223.82 1245.9 1223.82 1245.9 1223.82 1245.79C1227.6 1245.9 1230.25 1245.79 1234.35 1247.16C1235.31 1247.48 1235.72 1248.63 1235.09 1249.48C1231.31 1254.54 1231.93 1258.55 1231.93 1265.51C1231.93 1270.46 1226.23 1273.31 1222.23 1270.26C1198.93 1252.65 1200.19 1256.12 1200.19 1240.94C1200.19 1229.76 1223.7 1229.76 1223.7 1240.94L1223.82 1245.79Z" fill="#472D3D"/>
<path d="M1121.22 1281.01C1129.83 1281.01 1136.82 1274.02 1136.82 1265.4C1136.82 1256.79 1129.83 1249.8 1121.22 1249.8C1112.6 1249.8 1105.61 1256.79 1105.61 1265.4C1105.61 1274.02 1112.6 1281.01 1121.22 1281.01Z" fill="#281F24"/>
<path d="M1119.01 1245.78C1119.01 1245.9 1119.01 1245.9 1119.11 1245.9C1122.8 1245.9 1125.44 1245.78 1129.54 1247.16C1130.5 1247.47 1130.91 1248.63 1130.29 1249.47C1126.48 1254.53 1127.13 1258.55 1127.13 1265.51C1127.13 1270.46 1121.42 1273.3 1117.42 1270.25C1094.12 1252.64 1095.38 1256.12 1095.38 1240.94C1095.38 1227.02 1118.89 1227.02 1118.89 1240.94L1119.01 1245.78Z" fill="#472D3D"/>
<path d="M754.914 1281.01C763.524 1281.01 770.51 1274.02 770.51 1265.4C770.51 1256.79 763.524 1249.8 754.914 1249.8C746.278 1249.8 739.305 1256.79 739.305 1265.4C739.305 1274.02 746.278 1281.01 754.914 1281.01Z" fill="#281F24"/>
<path d="M757.128 1245.79C757.128 1245.9 757.014 1245.9 757.014 1245.9C753.326 1245.9 750.695 1245.79 746.579 1247.16C745.635 1247.48 745.207 1248.63 745.836 1249.48C749.638 1254.54 749.008 1258.55 749.008 1265.51C749.008 1270.46 754.698 1273.31 758.701 1270.26C782.001 1252.65 780.742 1256.12 780.742 1240.94C780.742 1228.82 757.128 1228.82 757.128 1240.94V1245.79Z" fill="#472D3D"/>
<path d="M859.718 1281.01C868.328 1281.01 875.327 1274.02 875.327 1265.4C875.327 1256.79 868.328 1249.8 859.718 1249.8C851.096 1249.8 844.109 1256.79 844.109 1265.4C844.109 1274.02 851.096 1281.01 859.718 1281.01Z" fill="#281F24"/>
<path d="M861.932 1245.9C858.131 1245.9 855.5 1245.79 851.384 1247.16C850.44 1247.47 850.012 1248.63 850.654 1249.47C854.443 1254.53 853.813 1258.55 853.813 1265.51C853.813 1270.46 859.503 1273.3 863.506 1270.26C886.819 1252.65 885.547 1256.12 885.547 1240.94C885.547 1231.23 862.033 1231.23 862.033 1240.94V1245.9C862.033 1245.9 862.033 1245.9 861.932 1245.9Z" fill="#472D3D"/>
<path d="M1169.29 1220.37C1169.29 1220.48 1169.29 1220.48 1169.29 1220.37L1005.96 1220.48C1005.86 1220.48 1005.86 1220.48 1005.86 1220.37V1088.89C1005.86 1088.79 1005.86 1088.79 1005.96 1088.79L1157.91 1086.14C1164.13 1086.14 1169.29 1091.42 1169.29 1097.75V1220.37Z" fill="#4F615D"/>
<path d="M956.621 1212.68L1136.82 1205.5H1241.62C1241.74 1205.5 1241.74 1205.5 1241.74 1205.62V1240.84C1241.74 1240.94 1241.74 1240.94 1241.62 1240.94H1136.82L956.722 1233.66C956.621 1233.66 956.621 1233.66 956.621 1233.56V1212.68Z" fill="#4F615D"/>
<path d="M1692.49 990.62C1589.59 961.63 1465.8 938.645 1358.14 938.645H1022.3C1022.2 938.645 1022.2 938.645 1022.2 938.745V975.338C1022.2 975.439 1022.2 975.439 1022.3 975.439H1265.04C1413.08 975.439 1522.63 1033.43 1546.78 1033.43H1707.89H1707.99V1033.33L1692.49 990.62Z" fill="#A2AAA8"/>
<path d="M1087.69 1220.37C1087.69 1220.48 1087.69 1220.48 1087.69 1220.37L924.359 1220.48C924.246 1220.48 924.246 1220.48 924.246 1220.37V1093.11C924.246 1086.89 929.306 1081.71 935.638 1081.71H1087.57C1087.69 1081.71 1087.69 1081.71 1087.69 1081.83V1220.37Z" fill="#66AB9A"/>
<path d="M947.879 1022.25C949.452 1001.8 1062.28 1001.8 1064.18 1022.15C1064.18 1022.15 1064.18 1022.25 1064.28 1022.25C1095.6 1027.1 1095.6 1076.87 1064.28 1081.72C1064.28 1081.72 1064.18 1081.72 1064.18 1081.83C1063.55 1092.37 947.879 1092.37 947.879 1081.72V1022.25Z" fill="#392D35"/>
<path d="M1064.06 1022.25C1066.27 1004.01 1143.56 1004.01 1145.78 1022.25V1081.72C1145.78 1092.37 1064.06 1092.37 1064.06 1081.72V1022.25Z" fill="#392D35"/>
<path d="M739.203 1205.62C739.203 1205.5 739.203 1205.5 739.203 1205.62L1136.72 1205.5C1136.82 1205.5 1136.82 1205.5 1136.82 1205.62V1240.84C1136.82 1240.94 1136.82 1240.94 1136.72 1240.94H739.304C739.203 1240.94 739.203 1240.94 739.203 1240.84V1205.62Z" fill="#66AB9A"/>
<path d="M582.827 867.147C582.412 867.046 582.512 866.417 582.94 866.417C763.136 866.417 755.445 865.46 768.095 869.047L1026.21 939.162L1026.32 939.275C1026.32 939.275 1026.32 939.376 1026.21 939.376H852.233L582.827 867.147Z" fill="#A2AAA8"/>
<path d="M1672.57 1003.91C1652.33 998.211 1562.06 1022.04 1394.32 975.54C1349.18 963.002 847.914 961.945 845.069 961.945L555.309 896.777H555.208C547.618 901.838 546.875 912.701 553.408 918.919C579.88 944.12 612.143 962.36 647.364 971.851C790.236 1010.66 819.025 1022.15 882.178 1022.15H1170.57C1270.94 1022.15 1386.51 1043.24 1484.26 1069.71C1530.86 1082.36 1561.12 1080.15 1621.23 1080.15C1647.27 1080.15 1673 1072.97 1694.61 1058.42C1696.71 1056.95 1698.93 1055.57 1700.93 1054.31C1707.79 1049.88 1710.74 1041.24 1707.99 1033.43C1708.11 1033.65 1687.34 1008.13 1672.57 1003.91Z" fill="#687974"/>
<path d="M1692.49 990.619C1546.88 990.619 1530.01 993.262 1487.2 982.399C1391.14 958.041 1281.9 938.744 1183.21 938.744H849.911L585.881 866.943C574.287 863.884 562.266 870.631 559.106 882.224L555.305 896.675C555.305 896.776 555.305 896.776 555.405 896.776L844.952 975.337H1183.21C1290.45 975.337 1417.81 999.694 1522.52 1030.16C1537.29 1034.49 1531.48 1033.33 1707.89 1033.33C1707.89 1033.33 1707.99 1033.33 1707.99 1033.22L1710.85 1024.57C1715.48 1010.23 1707.15 994.735 1692.49 990.619Z" fill="#505050"/>
<path d="M1169.3 1097.54C1169.3 1097.64 1169.3 1097.64 1169.3 1097.54L924.249 1097.64C924.148 1097.64 924.148 1097.64 924.148 1097.54V1093.11C924.148 1086.89 929.209 1081.71 935.54 1081.71H1157.92C1164.14 1081.71 1169.3 1086.79 1169.3 1093.11V1097.54Z" fill="#392D35"/>
<path d="M714.314 1243.9C714.553 1246.6 714.201 1248.82 713.609 1250.94C713.609 1250.94 713.609 1250.94 713.609 1251.06C712.325 1255.75 709.745 1259.98 709.745 1267.37C709.745 1267.37 741.655 1265.26 750.806 1261.74C746.589 1248.01 743.77 1237.09 743.77 1237.09C743.77 1237.09 744.361 1231.69 745.18 1223.36C746.124 1213.04 747.521 1198.37 748.465 1183.82C748.931 1177.01 749.283 1170.33 749.409 1164.22C749.409 1164.09 726.877 1166.21 707.277 1170.68C707.277 1170.68 707.982 1177.83 708.914 1187.92C710.676 1205.65 713.143 1232.17 714.314 1243.9Z" fill="#FFD1BD"/>
<path d="M722.761 1267.61L704.345 1262.09C704.219 1262.09 704.219 1261.98 704.219 1261.98C705.276 1258.81 706.799 1255.05 708.448 1251.88H708.562L725.115 1260.68L722.761 1267.61Z" fill="#66AB9A"/>
<path d="M788.836 1270.31C787.426 1271.13 766.417 1270.19 764.781 1270.07C764.781 1270.07 764.668 1269.96 764.781 1269.96L769.476 1262.09C769.476 1262.09 769.476 1262.09 769.589 1262.09H774.876L778.514 1261.04C782.026 1262.68 786.142 1264.56 789.541 1266.32C790.838 1267.37 789.654 1269.83 788.836 1270.31Z" fill="#66AB9A"/>
<path d="M527.262 1262.21C529.716 1264.21 535.595 1265.26 542.632 1265.73C557.649 1266.67 577.601 1265.03 579.363 1264.91C579.476 1264.91 579.476 1264.91 579.476 1264.91L579.363 1264.56L571.03 1237.91C580.068 1224.3 590.516 1209.64 601.19 1196.37C608.466 1187.22 615.981 1178.65 623.018 1171.26C623.018 1171.26 602.134 1155.54 583.001 1149.19C583.001 1149.19 577.487 1160.58 570.564 1174.9C570.438 1175.01 570.325 1175.25 570.325 1175.49C563.641 1189.22 555.66 1205.52 549.794 1217.27C546.156 1224.54 543.336 1229.93 542.04 1232.04C542.04 1232.04 534.538 1244.49 527.262 1262.21Z" fill="#FFD1BD"/>
<path d="M544.622 1268.77L525.388 1262.68C525.388 1262.68 525.388 1262.68 525.262 1262.56V1262.44C526.319 1259.27 527.842 1255.52 529.491 1252.35L547.089 1260.79L544.622 1268.77Z" fill="#66AB9A"/>
<path d="M608.818 1269.48C607.295 1270.31 588.288 1270.65 586.047 1270.65H585.934V1270.54L590.629 1262.33C590.629 1262.33 590.629 1262.21 590.742 1262.21L594.619 1262.09L599.315 1261.63C599.315 1261.63 599.315 1261.63 599.428 1261.63C602.952 1263.27 607.169 1265.14 610.581 1266.9C611.865 1267.96 609.523 1269.02 608.818 1269.48Z" fill="#66AB9A"/>
<path d="M562.583 1242.14C565.05 1240.85 567.983 1239.2 570.438 1238.15C570.916 1237.91 571.495 1238.03 571.848 1238.39C574.076 1240.37 576.43 1246.48 576.669 1246.95C582.182 1251.29 588.514 1255.63 589.219 1256.1C589.219 1256.1 589.332 1256.22 589.219 1256.22L586.991 1262.09L586.877 1262.2L557.774 1255.63L557.648 1255.52V1250.47C557.648 1246.95 559.524 1243.79 562.583 1242.14Z" fill="#66AB9A"/>
<path d="M523.738 1268.78C523.738 1267.61 524.33 1265.38 525.261 1262.56C525.261 1262.56 525.261 1262.56 525.387 1262.56L543.224 1266.68C543.224 1266.68 543.338 1266.68 543.338 1266.55L544.974 1261.86V1261.74L529.604 1252.59C529.604 1252.59 529.491 1252.47 529.604 1252.47C531.832 1248.01 533.947 1244.37 535.244 1244.37C539.813 1244.37 542.633 1255.06 549.09 1256.23C551.557 1256.69 557.423 1253.41 561.288 1250.94C562.937 1249.88 565.165 1249.66 566.927 1250.48C573.146 1253.3 583.594 1257.75 586.879 1259.51H586.992L589.107 1256.46C589.107 1256.46 589.22 1256.34 589.22 1256.46C590.63 1257.29 591.927 1257.99 593.097 1258.57C594.734 1259.39 596.962 1260.57 599.429 1261.74C599.429 1261.74 599.429 1261.74 599.542 1261.86V1261.98L597.667 1264.68H597.554L591.448 1263.5H591.335L587.345 1269.61V1269.72L587.458 1269.84C589.573 1269.84 606.831 1269.84 608.228 1268.9C609.059 1268.43 609.877 1267.72 610.343 1267.02C610.343 1267.02 610.469 1266.9 610.469 1267.02C614.22 1268.9 617.04 1270.65 617.619 1271.6C618.676 1273.25 617.505 1275.59 616.561 1276.65C612.571 1279.23 524.33 1281.57 523.625 1273.12C523.738 1272.66 523.738 1269.72 523.738 1268.78Z" fill="#508D7E"/>
<path d="M523.734 1273.01C523.734 1272.89 523.734 1272.89 523.734 1273.01C523.734 1272.89 523.848 1272.89 523.848 1272.89L616.444 1276.41C616.444 1276.41 616.557 1276.41 616.557 1276.53V1276.65C614.682 1278.63 608.35 1281.1 598.72 1281.45H524.905C524.905 1281.45 524.792 1281.45 524.792 1281.34C524.439 1280.64 523.974 1276.53 523.734 1273.01Z" fill="white"/>
<path d="M735.906 1246.13C737.09 1243.08 739.431 1238.97 743.421 1235.92C743.774 1235.68 744.239 1235.68 744.479 1236.03C746.241 1237.91 751.163 1243.44 752.346 1244.49C758.212 1249.18 768.182 1255.63 768.182 1255.63L765.954 1261.74L736.611 1255.17L736.032 1253.64C734.975 1251.18 734.975 1248.6 735.906 1246.13Z" fill="#66AB9A"/>
<path d="M702.695 1268.2C702.695 1267.02 703.287 1264.79 704.218 1262.1L704.344 1261.98L722.181 1266.09C722.181 1266.09 722.294 1266.09 722.294 1265.97L723.943 1261.28V1261.15L708.561 1252C708.561 1252 708.448 1251.89 708.561 1251.89C710.789 1247.43 712.904 1243.79 714.2 1243.79C718.77 1243.79 721.589 1254.47 728.047 1255.64C730.514 1256.1 736.38 1252.82 740.245 1250.36L740.371 1250.24C742.007 1249.18 744.122 1249.07 745.884 1249.89C752.216 1252.71 762.55 1257.16 765.836 1258.92H765.949L768.064 1255.75C768.064 1255.75 768.177 1255.64 768.177 1255.75C769.587 1256.58 770.884 1257.4 772.054 1257.99C773.691 1258.81 775.931 1259.98 778.386 1261.15C778.386 1261.15 778.386 1261.15 778.512 1261.28V1261.39L776.624 1264.08H776.51L770.405 1262.91H770.292L766.302 1269.02V1269.13L766.415 1269.26C768.53 1269.26 785.901 1269.13 787.198 1268.31C788.016 1267.85 788.834 1267.26 789.426 1266.44C789.426 1266.44 789.426 1266.44 789.539 1266.44C793.29 1268.31 796.223 1269.96 796.701 1270.89C797.759 1272.54 796.928 1275 795.644 1276.06C793.063 1277.59 707.504 1280.99 702.808 1272.42C702.468 1270.19 702.695 1269.13 702.695 1268.2Z" fill="#508D7E"/>
<path d="M702.816 1272.41C702.816 1272.3 702.816 1272.3 702.816 1272.41C702.816 1272.3 702.942 1272.3 702.942 1272.3L795.526 1275.83C795.526 1275.83 795.652 1275.83 795.652 1275.94V1276.05C793.776 1278.05 787.545 1280.52 777.815 1280.87H703.874H703.76C703.521 1280.17 702.942 1275.94 702.816 1272.41Z" fill="white"/>
<path d="M558.829 934.791L530.418 948.638L534.295 826.233L548.733 825.176L558.829 934.791Z" fill="#9C94CE"/>
<path d="M676.879 816.382C676.879 816.382 676.879 816.269 676.992 816.269L697.536 811.108L702.936 800.773C703.754 799.25 704.925 797.966 706.448 797.022C707.631 796.317 709.154 795.499 710.791 794.555C711.382 794.202 713.258 794.089 713.849 793.736C716.317 792.327 717.601 791.622 719.25 790.917C721.239 790.098 721.591 792.327 720.886 794.089C719.829 797.261 713.849 801.717 713.258 802.183C713.258 802.183 713.258 802.183 713.258 802.309L713.031 803.354V803.479H713.145L718.545 802.661C724.763 800.194 736.256 796.078 738.61 796.078C740.485 796.078 741.19 797.84 741.43 798.318C741.43 798.318 741.43 798.318 741.543 798.432H741.656C742.361 798.079 746.125 796.43 747.522 796.204C749.41 795.964 751.16 798.545 749.763 799.842C749.284 800.307 747.522 801.83 746.817 802.422V802.535C746.817 802.535 746.817 802.661 746.943 802.661C748.227 802.888 749.989 804.763 748.353 806.639C746.817 808.288 742.009 812.039 740.485 813.222V813.336L740.599 813.449C741.895 813.336 742.953 814.746 742.134 815.916C739.428 819.441 728.98 826.364 728.401 826.717C727.935 827.648 727.23 828.479 726.286 829.058C723.114 831.412 717.248 835.516 714.076 836.334C711.735 836.8 703.515 837.63 701.878 837.744L678.528 847.839H678.402C678.402 847.839 678.402 847.839 678.402 847.713L676.879 816.382Z" fill="#FFD1BD"/>
<path d="M741.429 798.316C741.429 798.316 729.811 802.533 722.762 806.171" stroke="#FCB597" stroke-width="2" stroke-linecap="round" stroke-linejoin="round"/>
<path d="M746.355 802.535C746.355 802.535 731.93 808.879 727.234 811.46" stroke="#FCB597" stroke-width="2" stroke-linecap="round" stroke-linejoin="round"/>
<path d="M739.779 813.445L728.047 820.016" stroke="#FCB597" stroke-width="2" stroke-linecap="round" stroke-linejoin="round"/>
<path d="M712.555 807.691L711.85 813.217C711.271 817.434 709.043 821.186 705.519 823.653L701.289 826.712" stroke="#FCB597" stroke-width="2" stroke-linecap="round" stroke-linejoin="round"/>
<path d="M545.098 832.112C546.269 843.718 547.439 855.689 548.257 866.955H548.031C548.849 881.859 549.088 895.945 548.257 906.745C548.736 910.496 542.983 925.161 541.334 933.268C540.868 934.678 540.516 936.075 540.289 937.372L543.336 951.81C543.336 951.81 575.485 959.665 573.849 945.352C572.552 934.199 576.077 922.228 576.668 911.201C577.247 898.173 572.2 890.545 568.448 881.746C591.333 881.507 609.875 875.175 629.701 870.014C658.225 862.612 678.643 857.225 687.215 854.984C689.796 854.292 691.432 851.698 690.966 849.118L687.328 828.7L684.861 814.388C684.622 812.978 683.338 812.034 681.928 812.273L579.249 825.528C579.01 825.528 578.77 825.415 578.657 825.176C577.713 821.425 570.563 794.197 559.763 759.228C554.602 741.983 551.43 721.792 536.06 712.527C531.251 710.173 513.175 704.068 511.06 703.363C500.612 697.975 491.348 692.109 491.348 692.109L491.7 696.326C491.7 696.326 493.11 698.441 495.338 701.966C494.041 701.727 492.644 701.487 491.348 701.374C530.66 757.352 527.613 782.818 538.879 808.283C539.937 816.377 544.154 823.074 545.098 832.112Z" fill="#F3F2F9"/>
<path d="M554.362 801.008C552.6 805.111 551.203 808.636 551.669 810.977C552.374 814.263 562.696 858.509 568.448 881.86" stroke="#D4D3DB" stroke-width="2" stroke-linecap="round" stroke-linejoin="round"/>
<path d="M440.882 1042.63C456.843 1045.34 472.213 1047.1 486.651 1048.16C559.296 1053.55 611.637 1042.28 634.395 1046.75C634.395 1046.75 634.521 1046.75 634.521 1046.86V1046.98C626.301 1056.25 617.616 1069.4 608.93 1084.19C580.771 1132.3 553.304 1198.02 548.03 1207.99V1208.1C548.03 1208.1 548.03 1208.23 548.143 1208.23L557.295 1212.22L563.513 1214.91L573.256 1219.14L593.56 1227.94H593.674C624.665 1189.69 666.671 1130.77 693.193 1083.95H693.307C693.307 1083.95 693.432 1083.95 693.432 1084.06C693.785 1089.7 694.251 1095.45 694.842 1101.43C696.831 1122.2 701.64 1162.92 705.517 1216.32L705.63 1216.43L717.135 1216.32L761.382 1215.62C761.495 1215.62 761.495 1215.62 761.495 1215.5C761.495 1212.22 762.313 1136.17 762.666 1117.28C763.484 1069.64 766.417 1048.16 766.543 1014.36C766.656 993.353 764.894 976.22 759.972 967.296C744.716 940.194 628.303 943.001 573.722 945.821C571.846 945.947 570.084 946.06 568.334 946.06C555.192 946.765 546.733 947.47 545.802 947.583H545.676L540.163 937.966L537.934 934.089L532.534 924.698H532.421L428.206 915.786L423.637 915.434C423.637 915.434 423.511 915.434 423.511 915.547C421.988 919.072 420.578 922.584 419.52 925.995C384.325 979.153 385.848 1033.37 440.882 1042.63Z" fill="#F29AD0"/>
<path d="M416.011 720.16C426.685 713.703 444.056 707.245 456.846 702.902C473.864 717.227 469.874 712.293 499.921 738.929C500.853 739.76 502.263 738.816 501.91 737.645C500.387 732.95 498.625 728.254 497.102 723.446C495.226 717.58 493.69 711.588 491.815 705.609L498.511 708.655C499.443 709.121 500.74 710.178 501.319 711.122C513.768 730.482 534.186 763.11 536.879 770.965C538.402 775.434 542.04 802.422 545.099 831.991C543.224 844.201 541.109 855.115 541.109 855.115C541.109 855.115 544.621 877.521 548.259 906.625C549.203 914.379 550.26 922.586 551.204 931.045C551.204 931.272 551.078 931.511 550.852 931.511C547.919 932.216 544.747 932.795 541.335 933.147C540.291 933.273 539.107 933.386 538.05 933.386C504.604 935.614 453.673 922.359 428.334 914.958C418.83 912.151 412.952 910.262 412.952 910.262L432.79 869.314C432.79 869.314 405.915 828.353 403.221 779.651C402.39 764.872 401.22 741.862 416.011 720.16Z" fill="#F29AD0"/>
<path d="M358.268 1040.4C358.268 1040.4 364.247 1027.38 367.772 1024.44C369.647 1022.92 372.467 1022.1 375.513 1021.4C378.686 1020.69 382.097 1020.34 384.904 1019.76C385.496 1019.63 385.735 1019.06 385.609 1018.58C382.789 1011.19 375.866 986.076 385.496 957.904C386.905 953.687 388.781 949.344 391.009 945.115C393.59 940.067 396.296 935.372 398.877 930.915C409.085 913.078 417.884 899.698 421.635 883.623C415.065 883.623 413.781 883.157 408.38 881.861C398.99 879.632 389.599 872.948 390.77 851.7C391.122 844.663 391.475 835.625 391.827 825.656C393.011 792.675 394.055 748.781 395.944 729.421C396.988 718.394 403.924 708.765 414.133 704.195L426.331 698.795C426.331 698.795 436.779 691.406 444.168 686.006C445.691 684.835 446.748 683.299 447.931 682.481C448.045 682.481 448.624 682.481 448.75 682.368C448.863 682.242 449.102 682.242 449.215 682.368C450.16 683.778 460.595 695.862 470.338 716.04C483.606 737.868 498.862 764.63 502.147 778.59C503.205 783.285 504.25 791.857 504.955 803.123C504.955 803.476 504.955 803.942 505.08 804.294C505.659 814.503 506.012 826.826 506.012 840.081C506.604 840.207 529.375 844.424 542.743 846.778C545.45 847.244 547.678 847.596 549.44 847.949C554.714 848.767 557.647 857.339 557.887 865.899C558.126 874.937 555.419 883.862 549.44 883.862C535.115 883.862 527.487 883.749 504.25 883.749C503.318 897.356 501.908 909.088 499.68 921.877C499.441 923.287 499.214 924.81 498.862 926.107C498.862 926.107 498.862 926.107 498.862 926.22C498.51 927.982 498.031 929.631 497.679 931.155C495.803 938.078 493.575 944.183 491.108 949.457C486.299 960.258 481.252 967.999 479.842 974.344C475.272 995.932 483.48 1002.74 488.414 1013.18C489.824 1016.24 490.995 1019.52 491.46 1023.51C492.404 1031.72 491.234 1039.7 488.062 1045.81C487.709 1046.62 487.243 1047.45 486.765 1048.16C483.127 1053.9 477.614 1057.66 470.804 1057.66C451.33 1057.66 414.951 1041.46 393.59 1055.79C393.35 1055.9 393.124 1056.01 392.885 1056.01C390.304 1056.01 374.469 1055.31 352.289 1048.39C351.584 1048.16 351.345 1047.21 351.936 1046.62L358.268 1040.4Z" fill="#F3F2F9"/>
<path d="M549.312 847.836C554.599 848.654 557.532 857.227 557.772 865.786C557.998 874.824 555.304 883.749 549.312 883.749" stroke="#D4D3DB" stroke-width="2" stroke-linecap="round" stroke-linejoin="round"/>
<path d="M534.531 737.051C534.758 743.395 556.233 766.041 559.405 778.125C561.406 785.64 557.416 794.2 554.357 801.01" stroke="#D4D3DB" stroke-width="2" stroke-linecap="round" stroke-linejoin="round"/>
<path d="M494.742 703.254C496.504 705.13 499.437 708.893 501.086 710.882C501.086 710.882 506.713 718.75 509.42 724.024C518.105 740.804 522.322 758.527 525.494 764.167" stroke="#38383A" stroke-width="2" stroke-linecap="round" stroke-linejoin="round"/>
<path d="M454.617 750.789L454.504 751.494C450.513 780.484 445.931 788.804 440.531 824.604" stroke="#D4D3DB" stroke-width="2" stroke-linecap="round" stroke-linejoin="round"/>
<path d="M440.77 824.719L459.664 831.063C470.338 833.757 499.92 839.157 505.786 839.975" stroke="#D4D3DB" stroke-width="2" stroke-linecap="round" stroke-linejoin="round"/>
<path d="M597.665 855.114C599.541 855.114 601.303 855.819 602.486 857.343C604.941 860.275 609.284 865.55 610.228 867.665C611.512 870.371 608.579 874.009 605.885 876.942C605.293 879.283 604.009 881.864 594.266 882.342C592.743 883.047 590.629 883.399 588.98 883.626C587.582 883.865 586.172 883.513 584.989 882.694L583.466 881.637C583.466 881.637 579.715 882.808 576.429 883.399C570.677 884.331 566.926 883.273 562.23 880.806L540.982 879.875C538.993 879.522 544.62 852.886 550.498 854.057C556.717 855.341 562.809 856.877 562.809 856.877C562.809 856.877 588.627 855.341 597.665 855.114Z" fill="#FFD1BD"/>
<path d="M588.286 876.703C586.989 878.226 584.522 880.58 583.465 881.638" stroke="#FCB597" stroke-width="2" stroke-linecap="round" stroke-linejoin="round"/>
<path d="M590.626 879.41C590.626 879.41 586.988 881.047 585.691 879.523" stroke="#FCB597" stroke-width="2" stroke-linecap="round" stroke-linejoin="round"/>
<path d="M592.613 867.902L592.852 869.778C592.852 869.778 598.139 876.462 597.661 879.521C597.661 879.873 597.309 880.578 596.843 881.044" stroke="#FCB597" stroke-width="2" stroke-linecap="round" stroke-linejoin="round"/>
<path d="M597.551 862.152L597.438 863.675C597.438 863.675 602.712 874.828 602.712 878V879.41" stroke="#FCB597" stroke-width="2" stroke-linecap="round" stroke-linejoin="round"/>
<path d="M602.004 860.738L602.243 863.092C602.243 863.092 604.824 869.424 605.642 873.062L605.881 875.063" stroke="#FCB597" stroke-width="2" stroke-linecap="round" stroke-linejoin="round"/>
<path d="M464.824 826.237C468.575 827.068 472.1 825.885 473.976 823.191C483.958 808.639 486.538 789.984 481.377 771.203" stroke="#BEBEBE" stroke-width="2" stroke-linecap="round" stroke-linejoin="round"/>
<path d="M489.468 823.899C486.409 825.422 482.419 824.956 479.133 822.728C461.888 810.757 449.325 793.499 444.051 774.73" stroke="#BEBEBE" stroke-width="2" stroke-linecap="round" stroke-linejoin="round"/>
<path d="M444.165 774.951L437.594 751.248C434.774 741.152 440.88 732.127 451.214 731.183C461.423 730.239 472.098 737.64 474.917 747.723L481.488 771.439" stroke="#38383A" stroke-width="2" stroke-linecap="round" stroke-linejoin="round"/>
<path d="M520.1 751.841L522.102 751.023C527.968 748.669 534.891 752.42 537.698 759.469C540.518 766.506 538.051 774.021 532.311 776.362L530.309 777.18C524.443 779.534 517.52 775.783 514.7 768.734C511.881 761.697 514.348 754.182 520.1 751.841Z" fill="#38383A"/>
<path d="M520.766 766.536C519.054 762.269 520.539 757.636 524.089 756.226C527.639 754.804 531.906 757.095 533.618 761.375C535.33 765.642 533.844 770.262 530.295 771.684C526.745 773.107 522.478 770.791 520.766 766.536Z" fill="#BEBEBE"/>
<path d="M451.218 731.184C451.218 713.586 439.713 693.748 445.226 682.129" stroke="#38383A" stroke-width="2" stroke-linecap="round" stroke-linejoin="round"/>
<path d="M499.329 640.126C499.681 637.533 508.367 631.906 509.185 643.059C510.129 648.573 512.005 655.257 515.756 663.351C528.079 689.999 509.651 706.427 492.519 707.006L490.756 707.358H489.233L489.12 700.913L488.302 666.762L486.3 663.124C486.061 653.62 498.737 644.582 499.329 640.126Z" fill="#35383D"/>
<path d="M445.691 659.837L448.285 682.483C448.285 682.483 448.285 682.596 448.398 682.596H448.511C448.624 682.483 448.75 682.483 448.864 682.369H448.977H449.103C449.921 683.54 456.731 693.862 465.291 707.595C466.94 710.302 468.702 712.996 470.464 715.929C481.605 726.729 494.52 738.813 502.966 745.976C504.842 747.612 507.662 745.737 507.07 743.395C505.66 737.995 503.319 731.651 500.851 725.785C497.566 717.804 494.167 710.415 492.644 707.13C492.405 706.538 492.166 706.185 492.053 705.833C491.939 705.481 491.813 705.367 491.813 705.254L491.7 701.616V700.206L491.234 686.712L490.882 674.615L490.756 669.807V669.693C490.756 669.693 490.756 669.693 490.882 669.693C491.234 669.693 492.405 669.693 494.281 668.749C496.509 667.692 498.737 665.942 500.738 663.941C504.729 659.837 507.888 654.437 508.241 651.97C508.593 649.389 509.071 646.569 509.537 643.171C510.242 638.236 511.06 632.018 511.765 623.332C512.004 620.047 513.288 615.125 513.527 611.021C513.767 606.792 508.945 597.867 501.909 591.648H501.796L490.995 596.583L463.768 609.02C463.768 609.02 463.654 609.02 463.654 609.133C458.015 644.228 455.434 637.884 450.978 636.6H450.865C450.865 636.6 450.865 636.6 450.865 636.713L450.513 643.989L445.691 659.837Z" fill="#FFD1BD"/>
<path d="M425.755 665.352C425.755 665.238 425.755 665.238 425.755 665.352C425.629 662.884 425.629 660.304 425.868 657.484C426.334 652.676 426.221 646.81 425.981 640.704C425.402 628.268 423.993 615.592 424.345 605.974C424.572 601.632 425.629 597.402 427.744 593.651C433.736 582.737 442.887 574.87 448.287 575.222H448.4C479.971 576.632 498.626 582.851 502.151 585.205C507.198 588.603 510.836 594.469 512.938 598.699C514.474 601.506 515.292 604.678 515.292 607.963C515.292 608.429 515.292 608.782 515.292 609.26C514.94 614.887 513.417 619.469 511.768 622.754H511.654C511.654 622.754 511.654 622.754 511.529 622.628C511.768 619.582 512.007 616.057 512.234 612.306C512.473 608.077 508.722 599.404 501.798 593.299H501.672L490.645 598.812L464.941 611.715C464.941 611.715 464.828 611.715 464.828 611.84C464.714 614.069 464.475 616.649 464.009 619.821C463.657 622.867 463.065 626.392 462.247 630.143C460.371 639.534 457.665 645.752 454.971 650.913C453.096 654.551 451.094 657.61 449.332 661.009L448.287 682.597V682.723C446.525 683.893 445.228 685.303 444.41 686.826C441.943 691.408 443.239 697.388 446.046 703.254V703.367H445.933C438.305 700.207 419.171 693.158 418.001 692.692C418.001 692.692 417.887 692.692 417.887 692.579C414.602 682.723 419.411 674.15 425.755 665.352Z" fill="#35383D"/>
<path d="M438.895 622.285C441.01 621.341 443.465 621.58 445.693 622.864L445.818 622.977C444.988 627.673 444.056 632.494 442.999 636.597C442.533 638.36 441.828 640.474 441.236 642.111C441.236 642.111 441.236 642.224 441.123 642.224H441.01C433.847 637.063 432.677 625.218 438.895 622.285Z" fill="#FFD1BD"/>
<path d="M488.771 669.58C479.62 669.227 467.17 666.055 459.668 657.961" stroke="#FCB597" stroke-width="2" stroke-linecap="round" stroke-linejoin="round"/>
<path d="M497.68 931.156C512.118 933.271 526.204 934.442 538.049 933.737" stroke="#FB68C2" stroke-width="2" stroke-linecap="round" stroke-linejoin="round"/>
<path d="M554.134 958.386C539.343 956.737 525.61 955.806 514.117 955.566" stroke="#FB68C2" stroke-width="2" stroke-linecap="round" stroke-linejoin="round"/>
<path d="M714.202 1041.11C716.896 1033.72 718.419 1027.38 718.658 1022.46C719.25 1010.6 707.04 999.925 687.793 990.773" stroke="#FB68C2" stroke-width="2" stroke-linecap="round" stroke-linejoin="round"/>
<path d="M714.204 1041.11C710.793 1050.03 705.758 1060.36 699.414 1071.86L693.309 1083.71" stroke="#FB68C2" stroke-width="2" stroke-linecap="round" stroke-linejoin="round"/>
<path d="M554.133 958.383C598.845 963.431 654.232 974.923 687.904 990.771" stroke="#FB68C2" stroke-width="2" stroke-linecap="round" stroke-linejoin="round"/>
<path d="M504.138 883.512H421.637" stroke="#D4D3DB" stroke-width="2" stroke-linecap="round" stroke-linejoin="round"/>
<path d="M1232.71 535.753V525.708C1232.71 525.708 1232.71 525.708 1232.71 525.582C1239.41 517.815 1243.47 494.024 1234.74 479.913C1225.17 464.606 1194.08 459.823 1178.05 463.41C1172.2 464.719 1163.7 470.346 1160.83 472.851C1160.6 473.09 1160.36 473.329 1160.24 473.455C1156.18 478.956 1152.35 487.201 1150.31 497.133C1149.96 499.034 1149.96 501.073 1150.31 502.986L1152.11 512.667C1151.63 517.576 1152.11 532.643 1152.35 538.497C1152.46 540.297 1152.7 542.084 1153.18 543.884C1154.02 546.994 1155.33 551.173 1156.66 555.717C1157.85 559.544 1161.2 562.414 1165.14 563.018C1169.09 563.61 1173.27 564.088 1177.1 564.566C1177.22 564.566 1177.22 564.566 1177.22 564.692C1176.98 573.063 1176.75 585.374 1176.51 598.768C1176.51 598.893 1176.51 598.893 1176.62 598.893C1189.9 599.246 1219.32 599.007 1243.35 587.174L1243.47 587.048L1232.71 535.753Z" fill="#8E675D"/>
<path d="M1177.34 564.695L1177.46 557.52" stroke="#61423A" stroke-width="2" stroke-linecap="round" stroke-linejoin="round"/>
<path d="M1157.85 617.662H1157.73V617.549C1159.4 613.118 1162.99 602.116 1164.66 596.615C1165.27 594.589 1166.82 592.915 1168.85 592.071C1178.9 588.245 1223.86 580.113 1245.39 576.047C1245.5 576.047 1245.5 576.047 1245.5 576.173L1252.68 600.807V600.921C1252.68 600.921 1252.68 600.921 1252.56 600.921C1249.33 601.399 1187.03 609.896 1157.85 617.662Z" fill="#353D3B"/>
<path d="M881.495 1050.91C881.369 1050.91 881.369 1050.91 881.369 1051.03L857.578 1108.67C857.578 1108.67 857.578 1108.67 857.578 1108.79C857.691 1109.5 859.366 1121.46 864.753 1126.96C872.885 1130.44 888.909 1124.22 895.959 1121.94L896.084 1121.83L894.649 1109.98C894.649 1109.98 894.649 1109.98 894.649 1109.87L915.936 1071.12V1071C914.5 1070.04 898.954 1059.99 881.495 1050.91Z" fill="#644F30"/>
<path opacity="0.6" d="M881.493 1050.91C881.367 1050.91 881.367 1050.91 881.367 1051.03L872.883 1071.47V1071.6C875.275 1073.75 877.78 1076.02 880.171 1078.06C886.276 1083.19 888.781 1091.33 886.994 1099.11L884.237 1110.7C884.237 1111.06 884.237 1118.83 884.237 1125.41V1125.53H884.363C888.907 1124.22 893.086 1122.78 895.843 1121.83L895.956 1121.7L894.521 1109.87C894.521 1109.87 894.521 1109.87 894.521 1109.74L915.808 1071V1070.88C914.498 1070.04 898.952 1059.99 881.493 1050.91Z" fill="#484033"/>
<path d="M1133.81 822.393C1129.74 817.37 1079.64 764.992 1074.02 759.731C1073.54 759.252 1072.95 758.774 1070.87 755.753C1055.1 738.13 1036.56 727.644 1019.49 716.68C1010.52 710.588 1002.74 705.678 996.891 701.977C996.765 701.852 976.323 687.98 952.406 685.953C945.117 685.349 938.056 689.176 934.594 695.633C929.924 704.13 924.184 717.045 924.184 728.639C924.184 738.205 928.854 759.617 928.967 760.209C929.332 774.924 930.88 788.67 933.272 803.625C932.089 807.225 933.474 812.499 935.349 818.075C938.899 836.504 942.726 856.481 946.427 881.581V881.707C945.835 882.425 945.231 883.142 944.878 883.86C938.056 897.845 879.585 1045.65 871.453 1060.37V1060.48C883.764 1071.37 929.924 1081.89 932.202 1082.37H932.315C946.666 1059.05 964.125 1014.8 975.844 992.556C980.741 983.115 991.025 951.784 995.091 938.869L995.217 938.743C1026.18 939.221 1069.23 940.782 1120.89 941.613C1122.33 941.739 1123.76 941.852 1125.2 941.852C1128.43 941.852 1131.54 941.852 1134.53 941.852H1192.41C1200.78 941.852 1209.51 941.852 1218.71 941.852C1255.67 941.852 1273.13 886.491 1277.92 858.508V858.394C1242.63 814.865 1136.81 822.154 1133.81 822.393ZM1015.31 859.943C1015.18 859.943 1015.18 859.943 1015.31 859.943C1015.18 859.943 1015.18 859.829 1015.18 859.829C1015.31 852.528 1015.31 846.436 1015.18 843.327C1015.18 843.327 1015.18 843.201 1015.31 843.201C1015.42 843.201 1015.42 843.201 1015.42 843.201C1018.66 848.462 1021.88 853.485 1024.99 858.155V858.268C1024.99 858.268 1024.99 858.394 1024.87 858.394C1021.53 858.873 1018.42 859.464 1015.31 859.943Z" fill="#827157"/>
<path d="M964.234 770.73C967.948 773.966 974.758 778.51 974.758 778.51C990.782 801.823 1013.39 840.09 1013.39 840.09L1015.06 842.721" stroke="#635846" stroke-width="2" stroke-linecap="round" stroke-linejoin="round"/>
<path d="M1143.02 822.387C1142.9 822.387 1142.9 822.387 1142.9 822.513C1140.63 839.254 1152.35 860.062 1162.99 874.526C1171.84 886.597 1185.71 893.898 1200.66 894.251C1222.19 894.855 1252.08 893.898 1266.2 893.055C1272.77 892.703 1277.91 887.202 1277.68 880.618C1277.44 873.682 1277.2 867.716 1277.2 867.237C1277.2 867.237 1277.2 867.237 1277.2 867.111C1266.67 851.805 1187.27 825.861 1143.02 822.387Z" fill="#353D3B"/>
<path d="M925.744 759.613C925.619 759.613 925.619 759.613 925.505 759.613C925.027 760.092 922.749 762.357 919.639 765.593C917.726 767.506 914.856 769.419 913.786 772.528C912.112 777.425 919.878 797.402 921.2 801.468C921.918 803.621 928.728 812.583 929.81 813.666C930.402 814.383 932.92 816.41 935.425 818.449H935.55C935.55 818.449 935.664 818.323 935.55 818.323C934.707 813.426 933.876 808.643 933.159 803.973C933.159 803.86 933.159 803.86 933.272 803.86C933.272 803.86 933.272 803.86 933.398 803.86C933.398 803.86 933.511 803.86 933.511 803.734C933.75 803.255 935.903 798.837 936.268 797.163C937.099 793.815 937.464 783.644 937.577 782.813V782.687L940.447 781.013C940.447 781.013 940.447 781.013 940.447 780.899V780.774L925.744 759.613Z" fill="#8E675D"/>
<path d="M932.443 751.243C932.317 751.117 932.443 751.117 932.443 751.243C932.317 751.117 932.317 751.117 932.203 751.117L920.723 763.202C916.896 771.333 926.816 787.471 935.665 787.358L949.184 779.818L949.298 779.704C949.298 779.704 949.298 779.578 949.184 779.578C938.057 776.947 931.964 761.049 932.443 751.243Z" fill="#353D3B"/>
<path d="M1288.2 668.011C1287.72 646.485 1281.26 625.552 1269.42 607.614C1264.63 600.439 1260.33 594.938 1257.82 591.955C1256.5 590.394 1254.59 589.563 1252.56 589.802L1186.55 597.695C1174.83 598.891 1144.22 604.027 1132.85 607.979C1083.58 625.074 1065.29 650.904 1018.29 680.208C994.018 695.389 971.776 707.713 957.539 721.585C943.554 735.217 931.117 750.638 930.638 751.242C927.894 760.683 935.548 785.204 958.256 779.225C973.45 774.441 970.932 772.528 992.218 763.918C1013.5 755.308 1028.94 742.984 1040.9 737.131C1042.2 736.413 1043.64 735.809 1045.2 735.092H1045.31C1054.29 742.028 1063.49 749.681 1072.47 758.052H1072.58C1081.32 755.421 1088.73 752.916 1093.51 750.524C1104.39 745.137 1117.43 738.679 1132.26 732.587C1132.37 733.896 1132.5 735.217 1132.61 736.413C1133.69 746.458 1140.74 784.486 1140.98 785.796C1140.98 785.796 1140.98 785.796 1140.98 785.921L1130.11 818.083C1130.11 818.688 1131.18 829.45 1137.63 836.978C1172.07 877.511 1255.54 873.684 1277.07 867.113C1277.07 867.113 1277.2 867.113 1277.2 867C1277.55 864.961 1286.04 817.97 1287.24 777.55C1288.79 723.259 1288.68 688.579 1288.2 668.011Z" fill="#8B3C6C"/>
<path d="M1025.11 858.262L1026.66 860.54C1060.62 910.753 1087.54 932.165 1106.54 938.623L1116.11 941.493" stroke="#635846" stroke-width="2" stroke-linecap="round" stroke-linejoin="round"/>
<path d="M1015.18 859.941L1013.03 922.125C1013.03 922.125 983.497 935.041 953.362 937.432C951.322 928.457 947.269 885.772 946.426 881.58" stroke="#635846" stroke-width="2" stroke-linecap="round" stroke-linejoin="round"/>
<path d="M838.082 1115.85C819.792 1126.97 805.681 1130.68 805.555 1141.2C805.555 1141.2 805.555 1141.2 805.555 1141.32C807.707 1145.14 823.618 1146.94 839.882 1147.18C855.189 1147.42 873.605 1147.06 888.068 1148.14C893.456 1148.49 898 1144.31 898 1138.93V1120.8C897.761 1119.2 897.157 1116.68 896.804 1114.77C896.565 1113.33 895.13 1112.26 893.569 1112.38C891.782 1112.62 889.503 1112.98 887.59 1114.18C884.367 1115.97 879.345 1120.75 875.04 1121.35C869.174 1122.18 859.255 1112.38 858.411 1111.55V1111.42L859.255 1109.75C860.211 1107.96 860.69 1105.92 860.325 1103.89C860.211 1103.18 860.325 1102.46 860.564 1101.26L861.407 1099.11V1098.98H861.281C860.929 1098.98 860.211 1098.98 859.607 1099.11C858.059 1099.22 856.624 1099.83 855.541 1100.9C851.954 1104.13 842.991 1112.62 838.082 1115.85Z" fill="#636363"/>
<path d="M898.038 1120.8C898 1120.63 898.038 1120.32 897.522 1120.41C897.295 1120.46 896.993 1120.55 896.666 1120.64C896.326 1120.73 887.955 1122.31 883.889 1124.34C876.349 1128.17 873.001 1134.03 867.739 1133.32C857.694 1131.88 851.715 1120.4 851.123 1119.08C851.123 1119.08 851.123 1119.08 850.997 1118.96H850.884L843.822 1123.03C843.822 1123.03 843.709 1123.14 843.822 1123.14L844.3 1126.38C844.905 1130.68 843.105 1134.99 839.643 1137.73L827.559 1146.95C827.559 1146.95 827.559 1146.95 827.559 1147.06C835.099 1145.75 895.722 1142.28 899.675 1142.64H899.788C899.788 1142.64 899.788 1142.64 899.788 1142.52L900.266 1134.15C900.392 1132.23 900.266 1130.21 899.914 1128.29C899.196 1125.9 898.592 1123.14 898.076 1120.97L898.038 1120.8Z" fill="#66AB9A"/>
<path d="M825.532 1146.34C825.406 1146.23 825.406 1146.23 825.406 1146.23C826.489 1137.73 827.798 1132.71 827.924 1132.12C827.924 1132.12 827.924 1131.99 828.037 1131.99L834.734 1129.73H834.86C834.86 1129.73 834.86 1129.73 834.86 1129.84C834.86 1130.92 834.86 1137.49 835.099 1145.62C835.099 1145.75 835.099 1145.75 834.973 1145.75L825.532 1146.34Z" fill="#353D3B"/>
<path d="M827.442 1127.81C827.316 1127.81 827.316 1127.81 827.203 1127.81C825.881 1127.68 824.924 1126.49 825.05 1125.18C825.768 1118.35 829.834 1115.48 833.056 1115.01C834.378 1114.77 835.574 1115.72 835.813 1117.04C836.052 1118.35 835.095 1119.55 833.774 1119.79C832.225 1120.03 830.312 1121.7 829.834 1125.77C829.708 1126.85 828.638 1127.81 827.442 1127.81Z" fill="#353D3B"/>
<path d="M974.047 925.346L973.934 925.472C976.917 938.148 982.305 973.658 982.544 975.219C982.544 975.219 982.544 975.219 982.544 975.332L998.442 987.177H998.568L1021.77 968.044V967.918L1013.4 955.129L1010.29 918.536C1010.29 918.536 1010.29 918.41 1010.16 918.41C1005.98 916.018 987.68 919.845 974.047 925.346Z" fill="#644F30"/>
<path opacity="0.6" d="M979.913 958.113C980.026 958.239 980.152 958.239 980.152 958.113L984.457 948.307C986.484 943.763 990.071 940.301 994.615 938.388C999.286 936.474 1005.62 934.322 1011.6 933.239C1011.72 933.239 1011.72 933.126 1011.72 933.126L1010.4 918.297C1010.4 918.297 1010.4 918.172 1010.29 918.172C1005.98 915.906 987.68 919.732 974.047 925.233L973.934 925.347C975.608 932.522 977.999 946.633 979.913 958.113Z" fill="#484033"/>
<path d="M1004.18 959.196C1005.02 954.048 1012.55 951.543 1015.79 953.57C1017.22 954.413 1018.89 956.918 1020.33 958.592C1024.51 963.615 1038.62 982.509 1038.86 982.988C1041.97 988.728 1023.92 1003.08 1019.73 1006.31C1010.52 1013.6 1014.46 1021.25 1006.46 1031.19C995.569 1044.58 979.784 1053.91 973.326 1052.95C969.386 1051.87 967.951 1046.97 967.826 1046.61C963.168 1039.08 970.821 1019.23 973.931 1004.99C974.522 996.381 976.436 980.243 977.153 974.377C977.279 973.068 978.236 971.872 979.545 971.394L981.219 970.79C982.302 970.437 983.497 970.916 983.85 971.986L985.172 975.699C985.172 975.699 985.172 975.812 985.285 975.812C988.042 976.656 996.891 976.291 1001.44 971.872C1003.11 970.198 1004.18 959.436 1004.18 959.196Z" fill="#636363"/>
<path d="M1032.4 974.139V974.026L1031.2 971.395C1030.25 969.242 1028.94 967.203 1027.26 965.529C1025.22 963.377 1022.35 960.506 1020.33 958.719C1020.33 958.719 1020.33 958.719 1020.2 958.719C1016.98 958.354 1010.87 960.746 1009.8 969.003C1007.52 987.898 987.56 985.38 985.886 985.141C985.76 985.141 985.76 985.141 985.76 985.267L984.086 996.029C984.086 996.143 984.086 996.143 984.212 996.143L985.886 996.508C989.952 997.225 992.583 1001.17 991.739 1005.23L988.63 1020.19C988.63 1020.19 988.63 1020.3 988.756 1020.3C988.869 1020.3 988.869 1020.3 988.869 1020.3C1006.57 996.986 1018.05 985.267 1032.4 974.139Z" fill="#66AB9A"/>
<path d="M996.288 1005.35C996.288 1005.23 996.288 1005.23 996.175 1005.12L982.781 1002.48C982.656 1002.48 982.655 1002.48 982.655 1002.6L980.742 1011.21C980.742 1011.21 980.742 1011.33 980.868 1011.33L989.478 1014.68H989.591L996.288 1005.35Z" fill="#353D3B"/>
<path d="M1250.65 482.656C1248.5 478.477 1244.19 474.285 1237.37 469.866C1234.39 466.153 1231.04 463.17 1228.04 461.017C1222.78 457.304 1202.21 456.712 1195.64 458.625C1195.64 458.625 1195.64 458.625 1195.52 458.625C1193.25 457.908 1179.86 455.869 1172.92 455.63C1170.88 455.516 1169.45 457.543 1170.16 459.343C1170.53 460.3 1171.01 461.256 1171.6 462.087V462.213C1171.6 462.213 1171.6 462.326 1171.49 462.326C1168.14 462.452 1164.07 462.691 1160.72 463.761C1159.05 464.24 1158.21 466.153 1158.68 467.714C1159.16 469.388 1160.01 471.062 1160.96 472.737C1160.96 472.737 1160.96 472.736 1161.08 472.85H1161.2C1163.59 470.823 1169.81 468.306 1175.19 466.871H1175.31C1176.62 468.306 1178.18 469.627 1179.86 471.062C1179.86 471.062 1179.86 471.062 1179.86 471.176V471.301C1178.66 472.371 1176.86 473.567 1175.07 475.002C1168.97 479.672 1164.31 486.004 1161.68 493.305L1159.88 497.837C1159.29 499.272 1160.36 500.946 1161.92 500.946L1166.82 501.185C1166.82 501.185 1166.94 501.185 1166.94 501.311L1168.97 519.488V519.601H1169.09L1178.53 517.096C1178.53 517.096 1178.53 517.096 1178.66 517.096C1178.77 517.096 1178.66 516.97 1178.66 516.97C1177.7 513.509 1176.75 509.921 1176.75 505.968C1176.75 504.773 1179.25 503.224 1180.69 503.224C1182.84 503.224 1188.94 507.051 1190.97 512.313C1190.97 512.313 1190.97 512.313 1190.97 512.426C1202.34 518.77 1205.69 531.56 1220.15 542.083C1220.15 542.083 1220.15 542.083 1220.28 542.083C1222.43 542.083 1223.98 537.904 1224.34 536.947C1224.34 536.947 1224.34 536.821 1224.46 536.821H1224.58C1226.13 538.382 1230.67 540.056 1234.15 541.013C1234.98 541.252 1235.7 541.366 1236.3 541.605C1237.5 541.844 1238.57 541.013 1238.69 539.817C1239.17 530.968 1239.28 524.51 1239.28 524.145C1239.52 523.428 1247.18 500.593 1248.61 494.023C1248.37 491.266 1247.65 488.522 1246.7 485.891V485.765H1246.82L1248.98 486.004C1250.29 485.891 1251.48 484.091 1250.65 482.656Z" fill="#2A2D33"/>
<path d="M1132.13 732.829C1131.18 720.153 1131.07 704.242 1131.07 704.242C1131.07 704.242 1080.71 719.31 1048.43 733.66L1045.32 735.095" stroke="#6E465E" stroke-width="2" stroke-linecap="round" stroke-linejoin="round"/>
<path d="M1038.86 983.355H1038.99C1038.99 983.355 1039.1 983.229 1038.99 983.229L1038.86 982.637C1038.62 981.794 1038.27 981.077 1037.67 980.359L1032.4 974.141C1032.4 974.141 1032.4 974.141 1032.29 974.141C1014.83 974.267 991.984 1005.36 984.331 1016.36C977.634 1025.93 968.306 1037.52 967.715 1046.61C968.306 1049.84 969.742 1052.11 972.372 1052.83C972.372 1052.83 972.498 1052.83 972.498 1052.71V1052.59C968.911 1049.6 980.391 1033.82 989.593 1022.21C1009.57 997.34 1033.6 978.811 1038.86 983.355Z" fill="#353D3B"/>
<path d="M822.054 1143.36C816.075 1143.71 808.069 1143.12 805.79 1141.44H805.677C805.677 1141.44 805.551 1141.56 805.677 1141.56C805.79 1142.16 805.916 1143.47 806.395 1144.31C807.351 1146.34 809.856 1149.21 822.532 1149.21H897.996C899.545 1149.21 900.867 1147.9 900.741 1146.23C900.501 1144.07 900.262 1141.08 899.91 1138.33C899.91 1138.21 899.784 1138.21 899.784 1138.21C898.588 1138.33 888.669 1138.92 877.189 1139.4C861.517 1140.01 846.097 1141.92 822.054 1143.36Z" fill="#353D3B"/>
<path d="M834.972 1124.22C833.663 1124.22 832.58 1123.14 832.58 1121.83C832.467 1114.65 836.646 1111.18 840.712 1110.35C842.034 1110.11 843.23 1110.94 843.582 1112.26C843.821 1113.57 842.991 1114.77 841.669 1115.13C839.995 1115.49 837.25 1116.81 837.364 1121.83C837.364 1123.14 836.294 1124.22 834.972 1124.22Z" fill="#353D3B"/>
<path d="M841.908 1120.03C840.712 1120.03 839.756 1119.2 839.516 1118.01C838.321 1110.35 843.582 1107.24 843.821 1107.12C845.017 1106.53 846.452 1106.88 847.057 1107.96C847.648 1109.16 847.296 1110.59 846.213 1111.18C845.974 1111.31 843.582 1112.98 844.186 1117.16C844.426 1118.48 843.469 1119.68 842.147 1119.92C842.147 1120.03 842.034 1120.03 841.908 1120.03Z" fill="#353D3B"/>
<path d="M1179.73 530.247C1179.85 532.991 1183.31 536.34 1185.83 535.622H1185.94C1187.75 535.031 1190.97 528.095 1191.81 524.985C1192.53 522.468 1192.05 517.571 1191.45 514.575L1190.85 512.184" stroke="#61423A" stroke-width="2" stroke-linecap="round" stroke-linejoin="round"/>
<path d="M267.663 622.302L270.722 627.702C271.264 628.772 270.181 630.031 268.922 629.49L257.039 623.019C250.028 619.054 241.934 617.078 234.016 617.078H201.816C196.957 617.078 192.992 613.125 192.992 608.266V541.878C192.992 537.019 196.957 533.066 201.816 533.066H275.581C280.44 533.066 284.393 537.019 284.393 541.878V608.266C284.393 613.125 280.44 617.078 275.581 617.078H270.899C268.016 617.078 266.405 619.961 267.663 622.302Z" fill="#8B3C6C"/>
<path d="M238.699 594.769C250.229 594.769 259.57 585.429 259.57 573.898C259.57 562.368 250.229 553.027 238.699 553.027C227.156 553.027 217.828 562.368 217.828 573.898C217.828 585.429 227.156 594.769 238.699 594.769Z" fill="#F3F2F9"/>
<path d="M1047.71 121.834H1041.08C1041.08 121.834 1041 121.834 1041 121.746L1040.63 120.411C1040.54 119.958 1040.28 119.606 1040.01 119.329C1040.01 119.329 1040.01 119.329 1040.01 119.241V51.6311C1040.01 51.543 1040.01 51.543 1039.93 51.543H1033.83C1033.75 51.543 1033.75 51.543 1033.75 51.6311V119.417V119.518C1033.48 119.782 1033.22 120.134 1033.13 120.587L1032.76 121.922L1032.68 122.01H1026.05C1008.97 122.01 995.113 135.882 995.113 152.963V232.657C995.113 232.745 995.113 232.745 995.201 232.745H1078.65C1078.73 232.745 1078.73 232.745 1078.73 232.657V152.963C1078.65 135.794 1064.79 121.834 1047.71 121.834ZM1073.28 227.106C1073.28 227.194 1073.28 227.194 1073.2 227.194H1000.48C1000.39 227.194 1000.39 227.194 1000.39 227.106V152.787C1000.39 138.651 1011.84 127.209 1025.97 127.209H1031.15H1031.24V127.297L1030.71 129.349C1030.26 130.96 1030.26 132.747 1030.71 134.359L1033.04 143.208C1033.3 144.102 1034.11 144.819 1035.09 144.819H1038.67C1039.65 144.819 1040.45 144.202 1040.73 143.208L1043.05 134.359C1043.5 132.747 1043.5 130.96 1043.05 129.349L1042.52 127.297V127.209C1042.52 127.209 1042.52 127.209 1042.61 127.209H1047.79C1061.92 127.209 1073.37 138.651 1073.37 152.787V227.106H1073.28Z" fill="#76B9A8"/>
<path opacity="0.72" d="M1035.81 299.02C1056.01 299.02 1072.39 282.643 1072.39 262.44C1072.39 242.224 1056.01 225.859 1035.81 225.859C1015.61 225.859 999.23 242.224 999.23 262.44C999.23 282.643 1015.61 299.02 1035.81 299.02Z" fill="#F3F2F9"/>
<path d="M1124.36 281.573L1121.4 256.888C1117.1 221.378 1091.35 193.118 1058.08 184.621V158.69C1058.08 146.971 1048.6 137.492 1036.88 137.492C1025.16 137.492 1015.68 146.971 1015.68 158.69V184.621C982.415 193.206 956.66 221.378 952.367 256.888L949.409 281.573C949.057 284.707 951.474 287.389 954.595 287.389H1119.26C1122.29 287.477 1124.71 284.707 1124.36 281.573Z" fill="#66AB9A"/>
</svg>
